<svg width="3000" height="255" viewBox="0 0 3000 255" fill="none" xmlns="http://www.w3.org/2000/svg">
<path d="M0 119L71.5 117.3C143 115.7 286 112.3 428.8 100.3C571.7 88.3001 714.3 67.7001 857.2 68.0001C1000 68.3001 1143 89.7 1285.8 76.7C1428.7 63.7 1571.3 16.3 1714.2 4.20001C1857 -7.99999 2000 15.0001 2142.8 24.3001C2285.7 33.7001 2428.3 29.3 2571.2 32.7C2714 36 2857 47.0001 2928.5 52.5001L3000 58.0001V256H2928.5C2857 256 2714 256 2571.2 256C2428.3 256 2285.7 256 2142.8 256C2000 256 1857 256 1714.2 256C1571.3 256 1428.7 256 1285.8 256C1143 256 1000 256 857.2 256C714.3 256 571.7 256 428.8 256C286 256 143 256 71.5 256H0V119Z" fill="#F2F2F2"/>
</svg>
