<svg width="3000" height="716" viewBox="0 0 3000 716" fill="none" xmlns="http://www.w3.org/2000/svg">
<path d="M0 0L71.5 10.2C143 20.3 286 40.7 428.8 38.3C571.7 36 714.3 11 857.2 17.2C1000 23.3 1143 60.7 1285.8 69.2C1428.7 77.7 1571.3 57.3 1714.2 40.7C1857 24 2000 11 2142.8 27.2C2285.7 43.3 2428.3 88.7 2571.2 90.7C2714 92.7 2857 51.3 2928.5 30.7L3000 10V717H2928.5C2857 717 2714 717 2571.2 717C2428.3 717 2285.7 717 2142.8 717C2000 717 1857 717 1714.2 717C1571.3 717 1428.7 717 1285.8 717C1143 717 1000 717 857.2 717C714.3 717 571.7 717 428.8 717C286 717 143 717 71.5 717H0V0Z" fill="#E1DAF7"/>
</svg>
