<svg width="3000" height="457" viewBox="0 0 3000 457" fill="none" xmlns="http://www.w3.org/2000/svg">
<path d="M0 59L71.5 47.5C143 36 286 13 428.8 4.70002C571.7 -3.69998 714.3 2.7 857.2 15.3C1000 28 1143 47 1285.8 43.5C1428.7 40 1571.3 14 1714.2 7.70002C1857 1.30002 2000 14.7 2142.8 24.2C2285.7 33.7 2428.3 39.3001 2571.2 44.8001C2714 50.3001 2857 55.7001 2928.5 58.3001L3000 61V458H2928.5C2857 458 2714 458 2571.2 458C2428.3 458 2285.7 458 2142.8 458C2000 458 1857 458 1714.2 458C1571.3 458 1428.7 458 1285.8 458C1143 458 1000 458 857.2 458C714.3 458 571.7 458 428.8 458C286 458 143 458 71.5 458H0V59Z" fill="#EAE6F5"/>
</svg>
